<svg xmlns="http://www.w3.org/2000/svg" viewBox="0 0 32 40" fill="none" x="0px" y="0px">
    <path fill-rule="evenodd" clip-rule="evenodd"
        d="M27.4146 8.82865C27.8051 9.21918 28.4383 9.21918 28.8288 8.82865C29.2193 8.43813 29.2193 7.80497 28.8288 7.41444L27.4146 6.00021L28.8287 4.58613C29.2192 4.1956 29.2192 3.56244 28.8287 3.17192C28.4381 2.78139 27.805 2.78139 27.4144 3.17192L26.0004 4.586L24.5862 3.1718C24.1956 2.78128 23.5625 2.78128 23.172 3.1718C22.7814 3.56232 22.7814 4.19549 23.172 4.58601L24.5861 6.00021L23.1718 7.41456C22.7813 7.80508 22.7813 8.43824 23.1718 8.82877C23.5623 9.21929 24.1955 9.21929 24.586 8.82877L26.0004 7.41442L27.4146 8.82865Z"
        fill="#a3a6b7" />
    <path fill-rule="evenodd" clip-rule="evenodd"
        d="M16 6C12.6863 6 10 8.68629 10 12C10 15.3137 12.6863 18 16 18C19.3137 18 22 15.3137 22 12C22 8.68629 19.3137 6 16 6Z"
        fill="#a3a6b7" />
    <path fill-rule="evenodd" clip-rule="evenodd"
        d="M4 16C4 9.37258 9.37258 4 16 4C16.9546 4 17.8819 4.11126 18.7701 4.32108C19.3076 4.44805 19.8463 4.11525 19.9732 3.57775C20.1002 3.04026 19.7674 2.50161 19.2299 2.37465C18.1921 2.1295 17.1105 2 16 2C8.26801 2 2 8.26801 2 16C2 23.732 8.26801 30 16 30C23.732 30 30 23.732 30 16C30 14.8895 29.8705 13.8079 29.6254 12.7701C29.4984 12.2326 28.9597 11.8998 28.4222 12.0268C27.8848 12.1537 27.552 12.6924 27.6789 13.2299C27.8887 14.1181 28 15.0454 28 16C28 19.2049 26.7436 22.1164 24.6964 24.2688C24.7091 24.2554 24.7216 24.2421 24.7342 24.2288C23.9786 21.7797 21.6971 20 18.9999 20H12.9999C10.3028 20 8.02129 21.7796 7.26565 24.2287C5.24091 22.0804 4 19.1851 4 16Z"
        fill="#a3a6b7" />
</svg>