<svg xmlns="http://www.w3.org/2000/svg" viewBox="0 0 32 40" fill="none" x="0px" y="0px">
    <path fill-rule="evenodd" clip-rule="evenodd"
        d="M16 6C12.6863 6 10 8.68629 10 12C10 15.3137 12.6863 18 16 18C19.3137 18 22 15.3137 22 12C22 8.68629 19.3137 6 16 6Z"
        fill="#489631" />
    <path fill-rule="evenodd" clip-rule="evenodd"
        d="M4 16C4 9.37258 9.37258 4 16 4C16.9546 4 17.8819 4.11126 18.7701 4.32108C19.3076 4.44805 19.8463 4.11525 19.9732 3.57775C20.1002 3.04026 19.7674 2.50161 19.2299 2.37465C18.1921 2.1295 17.1105 2 16 2C8.26801 2 2 8.26801 2 16C2 23.732 8.26801 30 16 30C23.732 30 30 23.732 30 16C30 14.8895 29.8705 13.8079 29.6254 12.7701C29.4984 12.2326 28.9597 11.8998 28.4222 12.0268C27.8848 12.1537 27.552 12.6924 27.6789 13.2299C27.8887 14.1181 28 15.0454 28 16C28 19.1892 26.7559 22.0877 24.7266 24.2369C24.7291 24.2342 24.7316 24.2315 24.7342 24.2288C23.9786 21.7797 21.6971 20 18.9999 20H12.9999C10.3028 20 8.02129 21.7796 7.26565 24.2287C5.24091 22.0804 4 19.1851 4 16Z"
        fill="#489631" />
    <path fill-rule="evenodd" clip-rule="evenodd"
        d="M27 3C27 2.44772 26.5523 2 26 2C25.4477 2 25 2.44772 25 3V5L23 5C22.4477 5 22 5.44771 22 6C22 6.55228 22.4477 7 23 7H25V9C25 9.55228 25.4477 10 26 10C26.5523 10 27 9.55228 27 9V7H29C29.5523 7 30 6.55228 30 6C30 5.44772 29.5523 5 29 5L27 5V3Z"
        fill="#489631" />
</svg>